<svg width="100" height="100" viewBox="0 0 100 100" fill="none" xmlns="http://www.w3.org/2000/svg">
<path d="M29.5299 67.6051C29.5337 66.005 29.7628 64.4185 30.2095 62.8877C31.0625 59.9649 32.6298 57.3463 34.871 55.109C35.3601 54.6199 35.8876 54.1675 36.3979 53.7285C36.6309 53.5282 36.8638 53.328 37.0949 53.1239L37.4203 52.8351L38.7277 54.0346C41.1171 56.2277 46.7144 61.3647 48.6706 63.1458C49.3349 63.7503 50.2302 63.7542 50.8983 63.1573C51.8245 62.3274 60.8759 53.9326 61.6596 53.1759L61.9099 52.9333L62.2796 53.1277C62.32 53.147 62.3643 53.1701 62.4163 53.2086C67.2992 56.9632 69.8408 61.8172 69.9678 67.6378C69.9717 67.8284 70.0044 68.0094 70.0602 68.1442C70.3317 68.8027 71.0538 69.1762 71.7797 69.0299C72.5306 68.8797 73.01 68.304 73.0004 67.5646C72.9792 65.9396 72.7963 64.457 72.4439 63.0283C71.5659 59.4701 69.7753 56.2739 67.124 53.5282C64.7287 51.0483 61.8502 49.1864 58.3209 47.8328C58.1476 47.7654 57.9704 47.7057 57.7837 47.6402C57.6913 47.6075 57.595 47.5748 57.4949 47.5401L56.7574 47.2802L57.3755 46.6871C57.4256 46.6371 57.4641 46.6005 57.5045 46.5697C58.3652 45.9189 59.0814 45.218 59.6956 44.4286C61.6153 41.9564 62.3778 39.3455 62.0254 36.4458C61.6615 33.4459 60.2117 30.9448 57.7182 29.0097C54.8666 26.7974 51.5048 25.9637 47.7233 26.5298C44.4539 27.0188 41.7833 28.5303 39.7828 31.018C37.7457 33.5518 36.9948 36.4323 37.5531 39.5784C37.971 41.9409 39.157 44.0223 41.0805 45.7649C41.3116 45.9728 41.558 46.175 41.818 46.3868C41.947 46.4927 42.0798 46.6005 42.2165 46.7141L42.8462 47.2378L41.9605 47.5805C41.8815 47.6114 41.8199 47.6364 41.7544 47.6576C39.3034 48.4836 37.0564 49.66 35.0732 51.1542C31.5958 53.7766 29.1082 57.0691 27.6814 60.9411C26.8728 63.1323 26.478 65.3793 26.5031 67.6185C26.505 67.8092 26.5262 67.9593 26.5647 68.0787C26.7861 68.7488 27.5024 69.1454 28.2687 69.0222C29.0196 68.9047 29.5279 68.3348 29.5299 67.6051ZM41.6254 41.9294C39.7905 39.0258 40.0562 35.252 42.2878 32.5391C43.9263 30.5462 46.1078 29.3987 48.7707 29.133C51.5742 28.8518 54.0599 29.6124 56.1548 31.3934C58.1996 33.1321 59.2047 35.3406 59.1411 37.9553C59.093 39.9693 58.3478 41.7619 56.9269 43.283C55.0111 45.3355 52.6312 46.3098 49.4369 46.3483H49.4234H49.41C46.0559 46.2039 43.3622 44.677 41.6254 41.9294ZM40.707 51.0502C43.651 49.7159 46.62 49.0689 49.7835 49.0689C49.7854 49.0689 49.7874 49.0689 49.7912 49.0689C52.9431 49.0689 55.9122 49.7178 58.8638 51.0521L59.5281 51.3525L49.7854 60.2923L40.0427 51.3525L40.707 51.0502Z" fill="white"/>
<path d="M37.9123 63.6963C37.9046 63.6963 37.8988 63.6963 37.8911 63.6963C37.0613 63.7059 36.474 64.2489 36.4625 65.0191C36.4567 65.4427 36.4586 67.191 36.4644 67.6396C36.474 68.4059 37.0748 68.9681 37.8892 68.9778C38.6883 68.9874 39.3314 68.4136 39.3468 67.6742C39.3679 66.7462 39.3699 65.8393 39.3506 64.9806C39.3352 64.2335 38.7306 63.6963 37.9123 63.6963Z" fill="white"/>
<path d="M62.5292 63.6963C62.4676 63.6963 62.406 63.6982 62.3405 63.7021C61.6916 63.7464 61.139 64.3278 61.1332 64.9729C61.1275 65.8335 61.1275 66.7192 61.1332 67.6819C61.1352 68.0324 61.2796 68.3558 61.5395 68.5946C61.8071 68.8391 62.173 68.9739 62.5715 68.9739C62.5754 68.9739 62.5792 68.9739 62.5831 68.9739C63.3822 68.9681 63.9887 68.4136 63.9964 67.6858L63.9906 64.9016C63.9829 64.7553 63.9482 64.6051 63.8943 64.4896C63.6556 63.9639 63.1973 63.6963 62.5292 63.6963Z" fill="white"/>
</svg>
