<svg width="96" height="96" viewBox="0 0 96 96" fill="none" xmlns="http://www.w3.org/2000/svg">
<path d="M32.4315 48.3071C32.0272 48.637 31.6667 48.928 31.308 49.2227C30.5395 49.8547 29.7 49.7398 29.1246 48.9131C27.187 46.1329 25.2513 43.3528 23.3174 40.5707C22.7821 39.8015 22.9277 39.0657 23.7253 38.6005C26.8137 36.7989 29.9003 34.9936 33.0051 33.2217C33.3966 32.9975 33.8847 32.927 34.3399 32.8436C36.8602 32.3765 39.3913 31.9577 41.9043 31.4572C42.8512 31.2682 43.7672 30.9049 44.6959 30.6232C45.0801 30.5064 45.4644 30.3878 45.8522 30.2821C46.0726 30.2228 46.1654 30.1116 46.1582 29.867C46.1418 29.259 46.1418 28.6511 46.1582 28.0431C46.18 27.2499 46.679 26.7661 47.4583 26.7049C47.7206 26.6846 48.0065 26.6178 48.2268 26.4807C48.8787 26.0766 48.8842 25.2592 48.2669 24.8033C47.6368 24.3381 46.6699 24.5512 46.3566 25.2314C46.2984 25.3575 46.2802 25.5076 46.2656 25.6485C46.2037 26.2731 45.8176 26.729 45.2167 26.8718C44.6522 27.0071 44.0294 26.7457 43.7381 26.236C43.5068 25.8301 43.5523 25.3834 43.6488 24.9608C43.9985 23.4299 45.0055 22.5161 46.4532 22.1454C47.8098 21.797 49.0772 22.0713 50.1734 23.0054C51.7486 24.3455 51.7996 26.7809 50.2518 28.1562C49.8967 28.4713 49.4469 28.677 49.0499 28.9458C48.9588 29.0069 48.8514 29.1182 48.8423 29.2145C48.8168 29.5278 48.8332 29.8447 48.8332 30.1802C49.7473 30.4601 50.6451 30.7121 51.5283 31.0068C53.2965 31.5962 55.1338 31.8409 56.9512 32.1893C58.428 32.4729 59.9085 32.7231 61.3853 33.0067C61.633 33.0549 61.8861 33.1606 62.0991 33.2996C65.1329 35.305 68.1594 37.3216 71.1877 39.3344C71.2642 39.3845 71.3389 39.4364 71.4135 39.4901C72.0782 39.9813 72.1893 40.6801 71.6885 41.3436C70.9073 42.3815 70.1152 43.4102 69.3248 44.4426C68.1831 45.9328 67.0413 47.4211 65.8977 48.9094C65.224 49.7861 64.5047 49.8788 63.616 49.2097C63.2864 48.9613 62.955 48.7185 62.5617 48.4257C62.5617 48.6351 62.5617 48.776 62.5617 48.915C62.5617 55.4207 62.5635 61.9245 62.5635 68.4301C62.5635 69.5237 62.1046 70 61.0302 70C56.5487 70 39.0399 69.9907 34.766 69.9889C34.4291 69.9889 34.0904 69.9778 33.7535 69.9796C33.1344 69.9833 32.4224 69.4792 32.4242 68.6266C32.437 62.4119 32.4315 56.1991 32.4315 49.9844C32.4315 49.4525 32.4315 48.915 32.4315 48.3071ZM68.7549 40.8524C68.6875 40.795 68.6529 40.7579 68.611 40.7301C66.2674 39.1695 63.9274 37.6052 61.5765 36.0575C61.1486 35.7758 60.7461 35.4607 60.1998 35.3699C58.6666 35.1197 57.1424 34.812 55.6146 34.5284C55.0064 34.4154 54.3963 34.3116 53.7918 34.2041C52.4825 37.1993 50.3555 38.7117 47.431 38.6375C44.4228 38.5597 42.294 37.1251 41.1668 34.2078C41.1176 34.2096 41.0393 34.2041 40.9647 34.2189C38.9616 34.584 36.9585 34.9454 34.9572 35.3217C34.6422 35.381 34.3071 35.4403 34.034 35.5979C31.5483 37.0213 29.0736 38.467 26.5952 39.909C26.4769 39.9776 26.3658 40.0591 26.2383 40.1426C27.7133 42.2574 29.1592 44.3332 30.6142 46.4221C30.7525 46.3109 30.8563 46.2312 30.9565 46.1496C31.6121 45.6084 32.2585 45.0561 32.9214 44.5278C33.3693 44.172 33.8774 44.1294 34.3873 44.374C34.8971 44.6187 35.1229 45.0579 35.1138 45.6251C35.112 45.7437 35.1138 45.8623 35.1138 45.9828C35.1138 52.9778 35.1138 59.9728 35.1138 66.9677C35.1138 67.1086 35.1138 67.2513 35.1138 67.42C43.3939 67.42 51.6302 67.42 59.8903 67.42C59.8903 67.2217 59.8903 67.0641 59.8903 66.9066C59.8903 61.6427 59.8903 56.3807 59.8903 51.1169C59.8903 49.3709 59.883 47.6268 59.8848 45.8809C59.8866 45.184 60.3164 44.6817 60.9847 44.5575C61.4235 44.476 61.8005 44.6094 62.1483 44.8744C62.8858 45.4323 63.6288 45.9847 64.3863 46.5537C65.8486 44.6465 67.2981 42.7541 68.7549 40.8524ZM51.1113 33.5591C49.9968 33.218 48.8842 32.8714 47.7643 32.5434C47.5913 32.4933 47.3819 32.4915 47.2071 32.5415C46.3967 32.7695 45.5918 33.0197 44.7869 33.2662C44.4719 33.3626 44.1605 33.4738 43.8473 33.5794C44.3463 35.2327 45.9251 36.1928 47.9045 36.0872C49.3649 36.0056 50.86 34.8361 51.1113 33.5591Z" fill="white"/>
</svg>
